HIERARCHY
ROOT Hips
{
	OFFSET -1.026148 111.334198 -0.270911
	CHANNELS 6 Xposition Yposition Zposition Xrotation Yrotation Zrotation
	JOINT Chest
	{
		OFFSET -0.876944 13.425896 2.265042
		CHANNELS 3 Xrotation Yrotation Zrotation
		JOINT Chest2
		{
			OFFSET -1.650049 21.260048 2.086672
			CHANNELS 3 Xrotation Yrotation Zrotation
			JOINT Chest3
			{
				OFFSET -0.096213 14.912308 0.658550
				CHANNELS 3 Xrotation Yrotation Zrotation
				JOINT Neck
				{
					OFFSET 0.768219 17.063965 2.616696
					CHANNELS 3 Xrotation Yrotation Zrotation
					JOINT Head
					{
						OFFSET -0.801281 10.332916 1.554524
						CHANNELS 3 Xrotation Yrotation Zrotation
						End Site
						{
							OFFSET -0.742196 10.343506 1.512845
						}
					}
				}
				JOINT LeftCollar
				{
					OFFSET 1.408418 12.292786 6.979126
					CHANNELS 3 Xrotation Yrotation Zrotation
					JOINT LeftUpArm
					{
						OFFSET 16.083151 -2.974457 6.401913
						CHANNELS 3 Xrotation Yrotation Zrotation
						JOINT LeftLowArm
						{
							OFFSET 12.952062 -10.756241 29.262188
							CHANNELS 3 Xrotation Yrotation Zrotation
							JOINT LeftHand
							{
								OFFSET 12.936344 -6.104919 26.388027
								CHANNELS 3 Xrotation Yrotation Zrotation
								End Site
								{
									OFFSET 2.827324 -1.334229 5.767258
								}
							}
						}
					}
				}
				JOINT RightCollar
				{
					OFFSET -4.397371 13.471100 1.000543
					CHANNELS 3 Xrotation Yrotation Zrotation
					JOINT RightUpArm
					{
						OFFSET -4.075680 3.003708 -16.818527
						CHANNELS 3 Xrotation Yrotation Zrotation
						JOINT RightLowArm
						{
							OFFSET -25.576891 6.870239 -20.936977
							CHANNELS 3 Xrotation Yrotation Zrotation
							JOINT RightHand
							{
								OFFSET -24.733608 9.540497 -14.077721
								CHANNELS 3 Xrotation Yrotation Zrotation
								End Site
								{
									OFFSET -5.405758 2.085220 -3.076824
								}
							}
						}
					}
				}
			}
		}
	}
	JOINT LeftUpLeg
	{
		OFFSET 6.957351 -0.755806 7.172390
		CHANNELS 3 Xrotation Yrotation Zrotation
		JOINT LeftLowLeg
		{
			OFFSET 6.936501 -46.842873 1.273052
			CHANNELS 3 Xrotation Yrotation Zrotation
			JOINT LeftFoot
			{
				OFFSET 6.996495 -43.113094 -9.637362
				CHANNELS 3 Xrotation Yrotation Zrotation
				JOINT LeftToe
				{
					OFFSET -6.502495 -21.326099 7.904099
					CHANNELS 3 Xrotation Yrotation Zrotation
					End Site
					{
						OFFSET -9.894441 -10.264362 18.875957
					}
				}
			}
		}
	}
	JOINT RightUpLeg
	{
		OFFSET -6.957340 0.755615 -7.172426
		CHANNELS 3 Xrotation Yrotation Zrotation
		JOINT RightLowLeg
		{
			OFFSET -2.202685 -46.701729 -7.622925
			CHANNELS 3 Xrotation Yrotation Zrotation
			JOINT RightFoot
			{
				OFFSET 3.175221 -43.217484 -11.079139
				CHANNELS 3 Xrotation Yrotation Zrotation
				JOINT RightToe
				{
					OFFSET -5.425032 -23.022501 0.300571
					CHANNELS 3 Xrotation Yrotation Zrotation
					End Site
					{
						OFFSET -14.793578 -15.159582 10.530586
					}
				}
			}
		}
	}
}
MOTION
Frames: 7
Frame Time: 0.033333
15.376497 102.096542 -4.290396 -13.902127 1.232495 -16.084640 12.739564 -0.677083 22.150992 -3.497763 -2.213127 0.184970 0.303544 -4.028432 -8.858025 9.540030 10.629136 -6.559359 -0.000000 0.000000 0.000001 7.295048 -24.529281 1.079953 13.182299 -12.015939 -12.622869 -33.536905 -72.956734 -44.686082 -0.000001 0.000000 -0.000002 2.811471 19.477160 10.465329 -5.145137 38.045018 13.317587 63.387550 40.275682 -48.215309 0.000000 -0.000003 -0.000001 6.430557 1.326987 -0.736170 19.506761 1.464506 16.603982 -36.929603 -0.603894 -10.096523 -0.000000 0.000004 0.000000 -21.432770 29.517530 -66.800978 8.012982 -2.488230 50.807482 -22.128244 -19.130609 -28.642286 -0.000003 0.000003 -0.000000 
15.444960 102.000893 -4.427669 -14.044465 1.351863 -16.511175 13.590411 -0.481676 22.441927 -4.465129 -2.784165 0.388296 0.809061 -2.732021 -8.944693 9.727395 10.846941 -6.284284 -0.000000 0.000002 0.000000 7.477447 -25.125887 1.079754 12.811312 -11.316411 -12.087176 -34.517724 -72.608749 -44.658458 -0.000001 -0.000003 0.000001 1.989306 19.285872 11.131499 -6.283239 37.389248 14.350113 64.325683 42.630960 -48.381601 -0.000003 -0.000001 -0.000002 6.338634 1.342891 -0.451403 19.919738 1.578248 17.057605 -36.390380 -0.800138 -9.966376 -0.000003 0.000002 0.000002 -21.870532 29.762563 -66.679852 7.199870 -2.940888 49.218613 -20.608445 -20.134708 -27.616150 -0.000006 0.000002 -0.000002 
15.491444 101.921173 -4.552302 -13.394021 0.426819 -17.037530 12.228895 -0.913227 22.644157 -3.086458 -2.237967 0.572065 0.537660 -2.554330 -9.092692 9.578826 10.980203 -6.603074 -0.000001 0.000002 0.000001 7.430698 -24.770024 0.854925 13.427723 -10.946812 -12.012819 -35.321606 -72.878603 -44.730516 -0.000000 -0.000001 0.000004 2.061735 20.929964 11.994847 -7.181360 35.942443 15.174672 65.853494 42.072340 -49.445177 -0.000002 -0.000001 -0.000001 5.585603 1.204131 0.000171 20.335869 2.012501 16.779321 -35.983841 -0.365173 -9.172958 -0.000003 0.000000 -0.000001 -23.974019 30.807220 -65.668663 7.358994 -3.072644 47.927478 -19.376241 -20.068892 -26.519750 -0.000006 0.000000 -0.000005 
15.539656 101.841461 -4.683426 -13.969111 2.130211 -17.360401 12.107078 -1.002986 23.493293 -2.998364 -2.537218 1.132311 0.603525 -4.092527 -10.080413 10.168692 11.193457 -6.387361 -0.000001 0.000004 0.000001 7.804890 -24.666567 0.440988 14.135076 -9.593066 -12.007718 -38.774321 -73.184370 -47.296700 -0.000003 -0.000000 -0.000001 1.751566 21.055438 12.428900 -8.139840 36.187237 16.314351 66.077265 44.568340 -48.826731 -0.000000 -0.000001 -0.000003 6.253444 1.352557 0.267663 20.119692 1.881144 18.244634 -36.362623 -1.115777 -10.174709 -0.000004 0.000000 -0.000001 -21.605499 29.698226 -66.913628 6.195795 -3.564059 46.719921 -18.227659 -20.515240 -25.584745 -0.000002 0.000003 -0.000003 
15.575380 101.759399 -4.810079 -14.028805 2.723321 -17.694455 12.205160 -0.999027 23.917393 -3.193752 -2.763115 1.415493 0.777028 -4.233168 -10.358455 10.822493 11.647469 -6.547992 0.000001 0.000005 0.000001 8.031117 -24.477101 0.438412 14.835758 -9.427526 -11.801205 -43.123619 -73.916908 -50.354279 -0.000001 0.000005 -0.000002 1.458305 20.668952 12.952131 -8.624914 36.330934 17.366142 66.755749 45.730623 -48.643620 -0.000000 -0.000003 -0.000002 6.310550 1.259572 0.399116 20.201347 1.902987 19.064904 -36.734909 -1.424033 -10.670730 -0.000004 0.000003 0.000001 -21.239868 29.639340 -67.061488 5.637003 -3.585504 45.142756 -16.601565 -20.751740 -24.127049 -0.000004 0.000004 -0.000000 
15.601149 101.675766 -4.925570 -14.329339 2.631286 -17.895627 13.404998 -0.679022 23.924208 -3.547011 -2.884260 1.310805 0.290208 -3.586146 -10.136961 10.492758 11.504007 -6.649273 -0.000001 0.000004 0.000001 7.878153 -24.435792 0.036215 14.765493 -8.416616 -11.856471 -43.661127 -74.012176 -51.999036 -0.000001 0.000005 -0.000000 0.710492 20.789863 13.372361 -9.971241 35.779178 18.216164 67.087054 48.018293 -48.646359 0.000002 0.000000 -0.000000 6.819508 1.156448 0.442226 20.091365 1.869219 19.281376 -35.864012 -1.797264 -10.648151 -0.000006 0.000002 0.000001 -22.162350 30.118570 -66.529861 5.979911 -3.333872 44.051093 -15.220324 -21.377961 -23.183308 -0.000004 0.000002 0.000003 
15.620947 101.594627 -5.027114 -14.635355 3.245681 -18.102238 14.180466 -0.471142 24.327725 -4.184546 -3.156512 1.215831 0.434388 -3.776214 -10.349273 10.852897 11.771344 -6.694498 -0.000002 0.000004 -0.000000 7.619697 -24.463641 -0.103360 14.322493 -8.404678 -12.026927 -41.215923 -73.897326 -50.996914 -0.000001 0.000003 0.000000 0.227499 20.935486 13.550507 -11.828698 35.284774 19.580404 66.818265 51.201355 -47.893105 -0.000000 -0.000004 -0.000001 6.718668 1.150456 0.480328 20.876659 2.004284 20.158035 -35.883362 -2.250285 -11.074630 -0.000003 0.000000 -0.000001 -21.999891 29.978520 -66.523488 5.886603 -3.268910 42.615063 -13.868512 -21.198988 -21.865862 -0.000003 0.000002 0.000003 
